<svg width="225" height="225" viewBox="0 0 225 225" fill="none" xmlns="http://www.w3.org/2000/svg">
<path d="M166.452 88.5511C159.841 85.4209 149.307 79.5724 139.596 72.5157C127.362 63.5644 119.845 55.2172 117.267 47.6388L116.938 46.6503L117.898 46.3208C120.668 45.3598 122.918 43.3554 124.207 40.692C125.469 38.0286 125.634 35.0082 124.673 32.2349C123.11 27.7867 118.94 24.8213 114.249 24.8213C113.015 24.8213 111.78 25.041 110.601 25.4528C107.803 26.4138 105.581 28.4183 104.292 31.0817C103.002 33.7451 102.838 36.738 103.825 39.5387C104.95 42.7239 107.419 45.1951 110.601 46.3208L111.561 46.6503L111.232 47.6388C108.461 55.9586 99.9026 65.0746 85.8027 74.7398C75.214 81.9887 65.0368 87.1233 62.1565 88.5237C61.114 89.0454 60.6752 90.2261 61.169 91.2146C61.4981 91.901 62.1839 92.3403 62.9245 92.3403H70.2763L70.3311 92.6973L81.7428 166.944H78.012C77.4908 166.944 76.9971 167.136 76.613 167.52C76.2564 167.877 76.037 168.399 76.037 168.921C76.037 169.827 76.6679 170.623 77.5457 170.843C78.4784 171.09 86.8999 173.396 95.1568 178.229C106.349 184.764 112.274 193.056 112.274 202.172C112.274 203.27 113.152 204.149 114.249 204.149C115.347 204.149 116.252 203.243 116.252 202.172C116.252 193.056 122.177 184.764 133.342 178.256C141.599 173.424 150.02 171.117 150.953 170.87C151.502 170.733 151.941 170.431 152.215 169.964C152.489 169.525 152.571 168.975 152.434 168.454C152.215 167.575 151.419 166.944 150.514 166.944H146.783L146.866 166.449L158.25 92.3403H165.602C166.699 92.3403 167.577 91.4342 167.577 90.3634C167.604 89.5671 167.165 88.8806 166.452 88.5511ZM107.227 35.9418C107.227 32.0427 110.409 28.8576 114.304 28.8576C118.2 28.8576 121.382 32.0427 121.382 35.9418C121.382 39.8408 118.2 43.0259 114.304 43.0259C110.381 43.0259 107.227 39.8408 107.227 35.9418ZM154.163 92.8071L142.915 169.277L134.741 172.902C127.663 176.279 122.067 180.645 118.117 185.835C117.404 186.768 115.347 189.761 115.237 189.926L114.414 191.161L113.536 189.981C112.96 189.212 111.122 186.713 110.436 185.862C106.212 180.535 100.616 176.197 93.7852 172.929L85.6381 168.838L85.5557 168.316L74.3362 92.3678H154.217L154.163 92.8071ZM71.2638 88.3589L74.6654 86.4094C95.7604 74.4103 106.047 64.3058 110.436 57.5786C112.11 55.025 112.082 55.3545 114.167 51.1809C114.167 51.1809 116.718 55.6016 118.172 57.5786C122.89 64.0861 132.821 74.4103 153.943 86.4094L157.345 88.3589H71.2638Z" fill="#77227A"/>
<path d="M116.307 97.3379H112.302V192.919H116.307V97.3379Z" fill="#77227A"/>
<path d="M155.315 96.3486H72.1143V100.083H155.315V96.3486Z" fill="#77227A"/>
<path d="M95.5414 91.7086L92.9902 88.6333C108.928 75.2888 112.165 50.7139 112.192 50.4668L116.143 50.961C116.005 52.0319 112.659 77.3481 95.5414 91.7086Z" fill="#77227A"/>
<path d="M132.958 91.709C115.84 77.3485 112.494 52.0597 112.356 50.9889L116.307 50.4946C116.334 50.7418 119.626 75.3441 135.509 88.6612L132.958 91.709Z" fill="#77227A"/>
<path d="M55.1891 120.732C55.0245 120.732 54.8599 120.704 54.6679 120.677L38.7849 116.448C37.7151 116.174 37.0842 115.075 37.3585 114.005C37.6328 112.934 38.7575 112.302 39.7999 112.577L55.6828 116.805C56.7527 117.08 57.3836 118.178 57.1093 119.249C56.8898 120.155 56.0669 120.732 55.1891 120.732Z" fill="#77227A"/>
<path d="M44.2712 148.684C43.6128 148.684 42.9819 148.355 42.5979 147.778C41.9944 146.845 42.2687 145.609 43.1739 145.005L58.2614 135.202C59.1666 134.598 60.4285 134.845 61.032 135.779C61.6355 136.713 61.3611 137.948 60.4559 138.525L45.3959 148.327C45.0393 148.574 44.6552 148.684 44.2712 148.684Z" fill="#77227A"/>
<path d="M40.0744 133.582C39.1691 133.582 38.3736 132.977 38.1267 132.071C37.8524 131.001 38.5108 129.93 39.5806 129.655L55.5184 125.674C56.6156 125.399 57.6855 126.058 57.9323 127.129C58.2067 128.2 57.5483 129.271 56.4785 129.545L40.5407 133.527C40.3761 133.554 40.2389 133.582 40.0744 133.582Z" fill="#77227A"/>
<path d="M168.126 121.006C167.248 121.006 166.425 120.402 166.206 119.524C165.931 118.453 166.562 117.354 167.632 117.08L183.515 112.851C184.557 112.577 185.682 113.208 185.956 114.279C186.231 115.35 185.6 116.448 184.53 116.723L168.647 120.951C168.482 120.979 168.29 121.006 168.126 121.006Z" fill="#77227A"/>
<path d="M179.043 148.959C178.659 148.959 178.303 148.849 177.946 148.629L162.859 138.827C161.926 138.223 161.679 136.987 162.283 136.053C162.886 135.12 164.121 134.873 165.053 135.477L180.113 145.279C181.046 145.883 181.293 147.119 180.689 148.025C180.333 148.657 179.702 148.959 179.043 148.959Z" fill="#77227A"/>
<path d="M183.268 133.856C183.103 133.856 182.939 133.829 182.774 133.802L166.836 129.82C165.767 129.546 165.108 128.475 165.383 127.404C165.657 126.333 166.727 125.674 167.797 125.949L183.734 129.93C184.804 130.205 185.463 131.275 185.188 132.346C184.969 133.252 184.146 133.856 183.268 133.856Z" fill="#77227A"/>
</svg>
