<svg width="225" height="225" viewBox="0 0 225 225" fill="none" xmlns="http://www.w3.org/2000/svg">
<path d="M180.614 138.572L180.609 138.577C180.537 138.638 180.469 138.706 180.406 138.779L180.406 138.779C180.251 138.955 172.703 147.53 163.095 156.965C158.29 161.682 152.966 166.62 147.789 170.833C142.62 175.039 137.568 178.547 133.313 180.378C124.32 184.251 109.666 186.943 97.6453 186.943C87.4138 186.943 73.3988 183.988 68.157 182.795L67.768 182.707V182.308V152.145V151.984L67.8614 151.854C69.4056 149.696 75.2325 142.329 84.2051 140.374L84.2054 140.374C89.4443 139.237 93.3811 139.233 96.5927 139.778C99.7921 140.32 102.246 141.404 104.498 142.397L104.516 142.405C106.524 143.291 108.359 144.097 110.429 144.467C113.88 145.082 118.308 144.482 123.122 143.824C125.762 143.462 128.605 143.074 131.204 142.945C133.787 142.817 136.206 142.939 137.965 143.65L137.967 143.651C138.484 143.862 139.112 144.349 139.672 145.016C140.24 145.691 140.769 146.585 141.063 147.645C141.651 149.768 141.11 151.909 139.584 153.978L139.553 154.02L139.514 154.054L137.224 156.099C137.209 156.12 137.185 156.152 137.151 156.187L137.119 156.219L137.082 156.245C133.205 158.92 126.087 161.823 118.835 163.966C111.588 166.108 104.093 167.524 99.4596 167.158C98.201 167.059 97.1091 168.001 97.0132 169.259C96.9174 170.514 97.8567 171.61 99.1115 171.706C99.6681 171.748 100.263 171.768 100.894 171.768C106.905 171.768 115.916 169.87 124.195 167.079C128.328 165.686 132.263 164.075 135.535 162.377C138.818 160.674 141.388 158.905 142.834 157.213L142.856 157.188L142.881 157.165L173.178 130.125L173.18 130.123C174.283 129.149 175.692 128.656 177.181 128.752C177.181 128.752 177.181 128.752 177.181 128.752L177.149 129.251C178.515 129.336 179.77 129.955 180.686 130.997L180.614 138.572ZM180.614 138.572C181.729 137.588 182.389 136.228 182.477 134.742L182.477 134.742C182.564 133.248 182.058 131.8 181.061 130.666L180.614 138.572ZM184.482 127.651L184.483 127.652C186.281 129.693 187.185 132.303 187.029 135.001C186.876 137.653 185.718 140.083 183.764 141.867L183.744 141.885L183.726 141.906C182.56 143.233 174.76 152.031 165.063 161.438C160.214 166.141 154.897 170.992 149.7 175.135C144.498 179.283 139.443 182.701 135.117 184.562L135.117 184.562C125.656 188.637 110.234 191.498 97.6453 191.498C87.597 191.498 74.5261 188.887 68.3765 187.519L67.768 187.384V188.007V200.815C67.768 202.073 66.7479 203.095 65.4878 203.095H39.9193C38.6592 203.095 37.6392 202.073 37.6392 200.815V138.144C37.6392 136.885 38.6592 135.863 39.9193 135.863H65.4878C66.7479 135.863 67.768 136.885 67.768 138.144V143.708V144.881L68.6143 144.068C71.9664 140.85 76.8895 137.299 83.237 135.915C89.2501 134.611 93.8513 134.675 97.5267 135.316C101.205 135.957 103.978 137.179 106.358 138.23L106.359 138.23L106.408 138.252C108.13 139.011 109.693 139.701 111.234 139.976L111.235 139.976C112.642 140.225 114.438 140.193 116.373 140.035C118.315 139.877 120.437 139.588 122.507 139.304C125.643 138.875 128.802 138.444 131.759 138.353C134.719 138.262 137.43 138.514 139.679 139.422C141.804 140.286 144.452 142.788 145.459 146.426C145.55 146.758 145.63 147.124 145.696 147.51L145.849 148.4L146.522 147.799L170.146 126.714C172.177 124.921 174.777 124.036 177.465 124.199C180.182 124.37 182.674 125.595 184.482 127.651ZM62.7076 198.538H63.2076V198.038V140.926V140.426H62.7076H42.6995H42.1995V140.926V198.038V198.538H42.6995H62.7076Z" fill="#77227A" stroke="white"/>
<path d="M80.945 64.7634V64.2634H80.445H74.2878C73.3111 64.2634 72.4423 63.6428 72.1295 62.7182L72.1292 62.7172C71.8145 61.7931 72.123 60.7716 72.8969 60.1755L110.799 31.0138C110.8 31.0137 110.8 31.0136 110.8 31.0135C111.61 30.3921 112.738 30.3844 113.558 30.997C113.558 30.997 113.558 30.9971 113.558 30.9972L152.437 60.1586C153.221 60.7484 153.541 61.773 153.23 62.7054C152.92 63.6354 152.05 64.2634 151.067 64.2634H144.901H144.401V64.7634V120.88C144.401 122.139 143.379 123.161 142.121 123.161H83.2251C81.965 123.161 80.945 122.139 80.945 120.88V64.7634ZM112.511 35.9128L112.208 35.6849L111.906 35.9165L82.1548 58.8067L80.9898 59.703H82.4597H83.2251C84.4855 59.703 85.5053 60.7228 85.5053 61.9832V118.1V118.6H86.0053H139.342H139.842V118.1V61.9832C139.842 60.723 140.864 59.703 142.122 59.703H142.729H144.228L143.029 58.803L112.511 35.9128Z" fill="#77227A" stroke="white"/>
<path d="M104.802 72.4905H104.302V72.9905V99.3022V99.8022H104.802H120.547H121.047V99.3022V72.9905V72.4905H120.547H104.802ZM123.327 104.363H102.021C100.763 104.363 99.7412 103.343 99.7412 102.082V70.2104C99.7412 68.95 100.761 67.9302 102.021 67.9302H123.327C124.586 67.9302 125.607 68.9502 125.607 70.2104V102.082C125.607 103.343 124.586 104.363 123.327 104.363Z" fill="#77227A" stroke="white"/>
<path d="M112.668 71.1484V101.648" stroke="#77227A" stroke-width="3.5"/>
<path d="M112.668 81.6484H123.168" stroke="#77227A" stroke-width="3.5"/>
<path d="M47.1685 138.148V200.148" stroke="#77227A" stroke-width="3.5"/>
<path d="M83.6685 112.648H142.168" stroke="#77227A" stroke-width="3.5"/>
</svg>
