<svg width="53" height="53" viewBox="0 0 53 53" fill="none" xmlns="http://www.w3.org/2000/svg">
<path d="M46.1229 6.16748H6.10654C5.60914 6.16748 5.20654 6.57008 5.20654 7.06748V24.0025C5.20654 24.4999 5.60914 24.9025 6.10654 24.9025H9.19234V45.8827C9.19234 46.3795 9.59494 46.7827 10.0923 46.7827H42.5199C43.0167 46.7827 43.4199 46.3795 43.4199 45.8827V24.9025H46.1229C46.6197 24.9025 47.0229 24.4999 47.0229 24.0025V7.06748C47.0229 6.57008 46.6197 6.16748 46.1229 6.16748ZM41.6199 44.9827H10.9923V24.9025H20.6595C20.9601 24.9025 21.2415 24.7525 21.4083 24.5017L26.3061 17.1571L31.2039 24.5017C31.3707 24.7519 31.6521 24.9025 31.9527 24.9025H41.6193V44.9827H41.6199ZM45.2229 23.1025H32.4345L27.0549 15.0355C26.7207 14.5345 25.8909 14.5351 25.5573 15.0355L20.1777 23.1025H7.00654V7.96748H45.2229V23.1025Z" fill="#77227A"/>
<path d="M30.4556 27.9038H22.1563C21.6589 27.9038 21.2563 28.307 21.2563 28.8038V41.2562C21.2563 41.753 21.6589 42.1562 22.1563 42.1562H30.4562C30.953 42.1562 31.3562 41.753 31.3562 41.2562V28.8038C31.3555 28.307 30.9524 27.9038 30.4556 27.9038ZM29.5555 40.3562H23.0563V29.7038H29.5561V40.3562H29.5555Z" fill="#77227A"/>
</svg>
