<svg width="225" height="225" viewBox="0 0 225 225" fill="none" xmlns="http://www.w3.org/2000/svg">
<path d="M113.97 51.29C109.087 51.29 105.109 55.2714 105.109 60.1589V69.0279H122.83V60.1589C122.83 55.2714 118.853 51.29 113.97 51.29ZM118.99 65.1837H108.977V60.1589C108.977 57.3857 111.227 55.1616 113.97 55.1616C116.74 55.1616 118.962 57.3857 118.962 60.1589V65.1837H118.99Z" fill="#77227A"/>
<path d="M79.3237 114.91H100.501V89.8687H79.3237V114.91ZM83.1642 93.6853H96.6332V111.039H83.1642V93.6853Z" fill="#77227A"/>
<path d="M103.573 114.91H124.751V89.8687H103.573V114.91ZM107.441 93.6853H120.91V111.039H107.441V93.6853Z" fill="#77227A"/>
<path d="M127.851 114.91H149.028V89.8687H127.851V114.91ZM131.691 93.6853H145.16V111.039H131.691V93.6853Z" fill="#77227A"/>
<path d="M79.3237 146.13H100.501V117.985H79.3237V146.13ZM83.1642 121.829H96.6332V142.258H83.1642V121.829Z" fill="#77227A"/>
<path d="M103.573 146.13H124.751V117.985H103.573V146.13ZM107.441 121.829H120.91V142.258H107.441V121.829Z" fill="#77227A"/>
<path d="M127.851 146.13H149.028V117.985H127.851V146.13ZM131.691 121.829H145.16V142.258H131.691V121.829Z" fill="#77227A"/>
<path d="M58.5303 190.831V201.622H166.365V190.831H158.354V84.4593C158.629 84.4593 158.793 84.4593 158.821 84.4593C159.507 84.4593 160.138 84.1024 160.494 83.4983L164.417 76.8809C164.773 76.2769 164.774 75.563 164.444 74.9589C163.567 73.4212 161.262 73.9979 159.836 73.6684C151.524 71.7738 144.803 60.5709 143.651 46.2928H144.913C145.736 46.2928 146.449 45.7711 146.723 45.0023C146.998 44.2335 146.751 43.3548 146.092 42.8606L115.204 18.5603C114.519 18.0111 113.531 18.0111 112.818 18.5603L81.9022 42.8606C81.2438 43.3548 80.9969 44.2335 81.2712 45.0023C81.5455 45.7711 82.2587 46.2928 83.0817 46.2928H84.3436C83.1914 60.5709 76.4706 71.7738 68.1588 73.6684C67.4456 73.8331 66.0466 73.9704 65.2236 73.9704C64.5378 73.9704 63.8795 74.3274 63.5503 74.9314C63.2211 75.5355 63.2211 76.2769 63.5777 76.8535L67.5005 83.4709C67.7748 83.9376 68.2137 84.2397 68.7074 84.3495V190.804H58.5303V190.831ZM113.97 22.5142L139.289 42.4212H88.6229L113.97 22.5142ZM88.2114 46.2928H139.756C140.661 58.3743 145.16 68.3415 151.551 73.6684H76.4158C82.8074 68.3415 87.3062 58.3468 88.2114 46.2928ZM68.4606 77.5674C68.5429 77.5674 68.5977 77.5125 68.68 77.5125H159.287C159.369 77.5125 159.424 77.5674 159.507 77.5674L157.724 80.5878C152.896 80.5329 133.145 80.3406 113.97 80.2583C94.8225 80.3406 75.0716 80.5329 70.2437 80.5878L68.4606 77.5674ZM120.471 173.862C123.297 173.862 125.793 172.517 127.411 170.458C128.426 171.748 129.771 172.737 131.334 173.313V190.859H114.381V171.446C115.945 172.929 118.085 173.862 120.471 173.862ZM115.451 165.021V153.077H125.464V165.021C125.464 167.794 123.214 170.018 120.471 170.018C117.701 170.018 115.451 167.767 115.451 165.021ZM129.304 165.021V153.077H139.317V165.021C139.317 167.794 137.067 170.018 134.297 170.018C131.526 170.018 129.304 167.767 129.304 165.021ZM135.175 173.78C137.644 173.533 139.811 172.297 141.265 170.458C142.883 172.517 145.379 173.862 148.205 173.862C150.674 173.862 152.896 172.846 154.514 171.199V190.831H135.175V173.78ZM143.185 165.021V153.077H153.197V165.021C153.197 167.794 150.948 170.018 148.177 170.018C145.434 170.018 143.185 167.767 143.185 165.021ZM143.185 149.205H139.344H129.332H125.464H115.451H111.611H101.598H97.7577H87.7451H83.9047H72.6028V84.4319C72.8222 84.4319 73.0417 84.4319 73.2611 84.4319V84.4593H154.514V149.205H143.185ZM78.8572 173.862C81.6827 173.862 84.179 172.517 85.7975 170.458C86.8124 171.748 88.1566 172.737 89.7202 173.313V190.859H72.5479V171.226C74.1664 172.846 76.3884 173.862 78.8572 173.862ZM73.8646 165.021V153.077H83.8772V165.021C83.8772 167.794 81.6278 170.018 78.8846 170.018C76.114 170.018 73.8646 167.767 73.8646 165.021ZM87.7177 165.021V153.077H97.7303V165.021C97.7303 167.794 95.4809 170.018 92.7377 170.018C89.9671 170.018 87.7177 167.767 87.7177 165.021ZM93.5607 173.78C96.0295 173.533 98.1966 172.297 99.6505 170.458C101.269 172.517 103.765 173.862 106.591 173.862C108.017 173.862 109.334 173.505 110.513 172.901V190.831H93.5607V173.78ZM106.591 170.018C103.82 170.018 101.571 167.767 101.571 165.021V153.077H111.583V165.021C111.611 167.767 109.361 170.018 106.591 170.018ZM158.327 194.675H162.497V197.751H62.3707V194.675H68.7074H158.327Z" fill="#77227A"/>
</svg>
