<svg width="39" height="40" viewBox="0 0 39 40" fill="none" xmlns="http://www.w3.org/2000/svg">
<path fill-rule="evenodd" clip-rule="evenodd" d="M19.7398 0C9.2464 0 0.739807 8.92479 0.739807 19.9341C0.739807 30.9434 9.2464 39.8682 19.7398 39.8682C30.2332 39.8682 38.7398 30.9434 38.7398 19.9341C38.7398 8.92479 30.2332 0 19.7398 0ZM15.5624 9.36679C16.6433 9.31518 16.9887 9.30256 19.7408 9.30256H19.7376C22.4905 9.30256 22.8346 9.31518 23.9155 9.36679C24.9943 9.41862 25.7311 9.59781 26.3771 9.86072C27.0442 10.132 27.6079 10.4953 28.1716 11.0867C28.7352 11.6776 29.0815 12.2708 29.3411 12.97C29.5903 13.646 29.7613 14.4186 29.8119 15.5504C29.8605 16.6844 29.8731 17.0468 29.8731 19.9342C29.8731 22.8215 29.8605 23.183 29.8119 24.3171C29.7613 25.4484 29.5903 26.2212 29.3411 26.8974C29.0815 27.5965 28.7352 28.1896 28.1716 28.7806C27.6085 29.372 27.044 29.7361 26.3777 30.0076C25.733 30.2705 24.9958 30.4497 23.917 30.5016C22.8361 30.5532 22.4918 30.5658 19.7395 30.5658C16.9876 30.5658 16.6425 30.5532 15.5616 30.5016C14.483 30.4497 13.7464 30.2705 13.1017 30.0076C12.4356 29.7361 11.8702 29.372 11.3072 28.7806C10.7437 28.1896 10.3975 27.5965 10.1385 26.8972C9.8881 26.2212 9.71731 25.4487 9.6677 24.3168C9.61872 23.1828 9.60648 22.8215 9.60648 19.9342C9.60648 17.0468 9.61914 16.6842 9.66749 15.5502C9.71604 14.4188 9.88705 13.646 10.1383 12.9698C10.3979 12.2708 10.7442 11.6776 11.3078 11.0867C11.8711 10.4955 12.4365 10.1323 13.1029 9.86072C13.7473 9.59781 14.4836 9.41862 15.5624 9.36679Z" fill="#77227A"/>
<path fill-rule="evenodd" clip-rule="evenodd" d="M18.8314 11.2185C19.0079 11.2182 19.1978 11.2183 19.4027 11.2184L19.7405 11.2185C22.4461 11.2185 22.7668 11.2287 23.8352 11.2796C24.8232 11.327 25.3595 11.5002 25.7167 11.6457C26.1896 11.8384 26.5267 12.0688 26.8812 12.4409C27.2358 12.813 27.4554 13.1674 27.6395 13.6635C27.7782 14.0379 27.9435 14.6004 27.9885 15.637C28.037 16.7578 28.0476 17.0944 28.0476 19.9318C28.0476 22.7691 28.037 23.1057 27.9885 24.2265C27.9433 25.2631 27.7782 25.8257 27.6395 26.2C27.4558 26.6961 27.2358 27.0494 26.8812 27.4213C26.5265 27.7934 26.1898 28.0238 25.7167 28.2164C25.3599 28.3626 24.8232 28.5354 23.8352 28.5828C22.767 28.6337 22.4461 28.6448 19.7405 28.6448C17.0346 28.6448 16.714 28.6337 15.6457 28.5828C14.6577 28.535 14.1215 28.3617 13.7641 28.2162C13.2912 28.0235 12.9534 27.7932 12.5987 27.4211C12.2441 27.049 12.0245 26.6955 11.8404 26.1991C11.7017 25.8248 11.5364 25.2622 11.4914 24.2256C11.4429 23.1049 11.4332 22.7682 11.4332 19.9291C11.4332 17.09 11.4429 16.7551 11.4914 15.6344C11.5366 14.5978 11.7017 14.0352 11.8404 13.6604C12.0241 13.1643 12.2441 12.8099 12.5987 12.4378C12.9534 12.0657 13.2912 11.8353 13.7641 11.6422C14.1213 11.496 14.6577 11.3232 15.6457 11.2756C16.5805 11.2313 16.9428 11.218 18.8314 11.2158V11.2185ZM25.1496 12.9838C24.4783 12.9838 23.9336 13.5546 23.9336 14.2592C23.9336 14.9635 24.4783 15.535 25.1496 15.535C25.821 15.535 26.3656 14.9635 26.3656 14.2592C26.3656 13.5548 25.821 12.9834 25.1496 12.9834V12.9838ZM14.5365 19.9342C14.5365 16.9191 16.8665 14.4745 19.7403 14.4744C22.6141 14.4744 24.9436 16.919 24.9436 19.9342C24.9436 22.9494 22.6144 25.3929 19.7405 25.3929C16.8666 25.3929 14.5365 22.9494 14.5365 19.9342Z" fill="#77227A"/>
<path d="M19.7407 16.3906C21.6061 16.3906 23.1185 17.9772 23.1185 19.9345C23.1185 21.8916 21.6061 23.4784 19.7407 23.4784C17.8751 23.4784 16.3629 21.8916 16.3629 19.9345C16.3629 17.9772 17.8751 16.3906 19.7407 16.3906Z" fill="#77227A"/>
</svg>
