<svg width="38" height="41" viewBox="0 0 38 41" fill="none" xmlns="http://www.w3.org/2000/svg">
<path fill-rule="evenodd" clip-rule="evenodd" d="M19 0.631836C8.50659 0.631836 0 9.55663 0 20.5659C0 31.5752 8.50659 40.5 19 40.5C29.4934 40.5 38 31.5752 38 20.5659C38 9.55663 29.4934 0.631836 19 0.631836ZM14.8226 9.99862C15.9035 9.94702 16.2489 9.93439 19.001 9.93439H18.9978C21.7507 9.93439 22.0948 9.94702 23.1757 9.99862C24.2545 10.0505 24.9913 10.2296 25.6373 10.4926C26.3044 10.7639 26.8681 11.1271 27.4318 11.7185C27.9954 12.3095 28.3417 12.9026 28.6013 13.6019C28.8504 14.2779 29.0214 15.0504 29.0721 16.1822C29.1207 17.3163 29.1333 17.6786 29.1333 20.566C29.1333 23.4534 29.1207 23.8149 29.0721 24.9489C29.0214 26.0803 28.8504 26.8531 28.6013 27.5293C28.3417 28.2283 27.9954 28.8215 27.4318 29.4124C26.8687 30.0038 26.3042 30.3679 25.6379 30.6395C24.9932 30.9024 24.256 31.0816 23.1772 31.1334C22.0963 31.185 21.752 31.1976 18.9997 31.1976C16.2478 31.1976 15.9027 31.185 14.8218 31.1334C13.7432 31.0816 13.0066 30.9024 12.3619 30.6395C11.6958 30.3679 11.1304 30.0038 10.5674 29.4124C10.0039 28.8215 9.65771 28.2283 9.39867 27.5291C9.14829 26.8531 8.9775 26.0805 8.92789 24.9487C8.87891 23.8146 8.86667 23.4534 8.86667 20.566C8.86667 17.6786 8.87934 17.3161 8.92768 16.182C8.97624 15.0506 9.14724 14.2779 9.39846 13.6016C9.65813 12.9026 10.0044 12.3095 10.568 11.7185C11.1313 11.1273 11.6966 10.7641 12.3631 10.4926C13.0074 10.2296 13.7438 10.0505 14.8226 9.99862Z" fill="#C69B51"/>
<path fill-rule="evenodd" clip-rule="evenodd" d="M18.0916 11.8503C18.2681 11.85 18.458 11.8501 18.6629 11.8502L19.0007 11.8503C21.7063 11.8503 22.027 11.8605 23.0954 11.9114C24.0834 11.9588 24.6197 12.1321 24.9769 12.2776C25.4498 12.4703 25.7869 12.7006 26.1414 13.0727C26.496 13.4448 26.7156 13.7992 26.8997 14.2954C27.0384 14.6697 27.2037 15.2323 27.2487 16.2689C27.2972 17.3896 27.3078 17.7263 27.3078 20.5636C27.3078 23.4009 27.2972 23.7376 27.2487 24.8583C27.2035 25.8949 27.0384 26.4575 26.8997 26.8318C26.716 27.328 26.496 27.6812 26.1414 28.0531C25.7867 28.4252 25.45 28.6556 24.9769 28.8483C24.6201 28.9945 24.0834 29.1672 23.0954 29.2146C22.0272 29.2656 21.7063 29.2766 19.0007 29.2766C16.2948 29.2766 15.9741 29.2656 14.9059 29.2146C13.9179 29.1668 13.3817 28.9936 13.0243 28.8481C12.5514 28.6554 12.2136 28.425 11.8589 28.0529C11.5042 27.6808 11.2847 27.3273 11.1006 26.8309C10.9619 26.4566 10.7966 25.894 10.7516 24.8574C10.7031 23.7367 10.6934 23.4 10.6934 20.5609C10.6934 17.7218 10.7031 17.387 10.7516 16.2662C10.7968 15.2296 10.9619 14.667 11.1006 14.2923C11.2843 13.7961 11.5042 13.4417 11.8589 13.0696C12.2136 12.6975 12.5514 12.4672 13.0243 12.274C13.3815 12.1278 13.9179 11.9551 14.9059 11.9075C15.8407 11.8632 16.203 11.8499 18.0916 11.8477V11.8503ZM24.4098 13.6156C23.7385 13.6156 23.1938 14.1864 23.1938 14.891C23.1938 15.5953 23.7385 16.1668 24.4098 16.1668C25.0812 16.1668 25.6258 15.5953 25.6258 14.891C25.6258 14.1867 25.0812 13.6152 24.4098 13.6152V13.6156ZM13.7967 20.566C13.7967 17.5509 16.1267 15.1064 19.0005 15.1063C21.8743 15.1063 24.2038 17.5509 24.2038 20.566C24.2038 23.5812 21.8746 26.0247 19.0007 26.0247C16.1268 26.0247 13.7967 23.5812 13.7967 20.566Z" fill="#C69B51"/>
<path d="M19.0009 17.0225C20.8663 17.0225 22.3787 18.609 22.3787 20.5663C22.3787 22.5234 20.8663 24.1102 19.0009 24.1102C17.1353 24.1102 15.623 22.5234 15.623 20.5663C15.623 18.609 17.1353 17.0225 19.0009 17.0225Z" fill="#C69B51"/>
</svg>
