<svg width="225" height="225" viewBox="0 0 225 225" fill="none" xmlns="http://www.w3.org/2000/svg">
<path d="M51.2291 189.925C49.0071 189.925 46.7029 189.596 44.3437 188.909C35.9222 186.521 30.4084 180.425 28.8448 171.721C27.2538 162.852 30.0792 155.466 37.3212 149.754C27.8298 142.863 25.2512 129.6 31.6154 119.661C35.7576 113.208 42.7801 109.364 50.4336 109.364C54.6581 109.364 58.7729 110.545 62.3938 112.824C65.4113 114.718 68.566 116.695 71.7755 118.398C76.6309 120.979 82.5562 120.045 86.5338 116.064L170.063 32.4817C171.463 31.0813 172.862 29.8457 174.645 29.8457C176.455 29.8457 177.827 31.0813 179.226 32.4817L182.463 35.7217C184.602 37.8909 184.602 40.6916 182.463 42.8608C181.53 43.7943 180.542 44.673 179.445 45.634C179.665 45.7988 179.857 45.9361 180.049 46.1008C183.203 48.8191 184.328 52.169 183.368 56.0955C183.286 56.425 183.45 56.9192 183.807 57.3585C184.273 57.9352 184.959 58.347 185.508 58.347C186.523 58.1548 187.318 58.0725 188.059 58.0725C190.994 58.0725 193.49 59.2806 195.74 61.7518C196.837 62.9874 198.044 64.1407 199.223 65.2939C200.101 66.1451 200.979 67.0237 201.829 67.9024C203.256 69.3577 203.942 70.9502 203.914 72.6252C203.887 73.7509 203.503 75.4259 201.747 77.1283C200.184 78.6659 198.675 80.1212 196.782 80.9998C195.548 81.5764 193.874 81.549 192.146 81.3842L191.405 81.3019C190.665 81.2469 189.952 81.0822 189.211 80.9174C188.498 80.7527 187.812 80.6154 187.236 80.6154C185.233 80.6703 183.642 81.4117 182.682 82.7297C181.667 84.13 181.475 86.0521 182.133 88.1389C184.218 94.7837 180.789 98.6278 177.58 101.264C175.111 103.268 171.819 103.131 169.515 100.907C167.073 98.5729 164.221 95.7997 161.45 92.8067C159.502 90.7199 158.844 87.9741 159.53 84.8988C159.667 84.2399 159.447 83.471 158.954 82.8395C158.597 82.3727 158.131 82.0981 157.719 82.0981C156.677 82.2903 155.854 82.3727 155.058 82.3727C151.904 82.3727 149.215 81.0547 146.911 78.3913L98.0551 127.349C93.7209 131.687 92.8705 137.398 95.7783 142.643C97.2322 145.279 98.8781 148.025 100.963 151.265C107.19 160.985 105.517 173.121 96.903 180.727C89.277 187.454 76.7132 187.591 68.4563 181.111C63.6283 186.987 57.8402 189.925 51.2291 189.925ZM50.4062 113.84C44.2889 113.84 38.6379 116.915 35.3187 122.104C30.0518 130.287 32.4384 141.325 40.5856 146.679C40.9696 146.926 41.3537 147.228 41.7652 147.53L45.0021 149.864L42.2864 151.622C34.6878 156.564 31.6977 162.879 33.1516 170.952C34.4134 177.981 38.6928 182.731 45.4959 184.654C53.8077 187.015 60.6931 184.351 66.2069 176.691L67.6059 174.769L70.6508 177.267C77.2893 182.841 87.7134 182.896 93.9129 177.432C100.963 171.199 102.28 161.671 97.1773 153.681C95.0376 150.359 93.3369 147.53 91.8556 144.785C88.0151 137.81 89.1672 129.902 94.9005 124.191L143.866 75.2337C144.223 74.8767 144.607 74.5472 144.963 74.2177L146.554 72.7899L147.899 73.4489C148.31 73.6411 148.639 73.7784 148.968 74.0804C149.38 74.4374 149.791 74.8218 150.121 75.2337C152.041 77.595 154.016 78.3089 156.759 77.7598C158.926 77.3205 161.038 78.2266 162.492 80.0663C163.836 81.7412 164.358 83.9104 163.919 85.8599C163.562 87.4799 163.836 88.743 164.742 89.7589C167.457 92.6694 170.256 95.3878 172.642 97.6942C173.465 98.4905 174.37 98.1885 174.837 97.8041C178.211 95.0583 179.006 92.8616 177.936 89.4569C176.867 85.9972 177.278 82.7022 179.116 80.1212C180.872 77.6774 183.779 76.2496 187.099 76.1672C187.099 76.1672 187.099 76.1672 187.126 76.1672C188.333 76.1672 189.321 76.3869 190.198 76.5791C190.747 76.6889 191.296 76.8262 191.844 76.8537L192.64 76.9361C193.655 77.0459 194.807 77.0184 194.944 76.9635C196.124 76.4143 197.303 75.2611 198.428 74.1628C199.059 73.5587 199.498 73.037 199.498 72.5428C199.498 72.1309 199.196 71.5818 198.647 70.9777C197.824 70.1265 196.974 69.3027 196.124 68.4515C194.889 67.2434 193.627 66.0078 192.475 64.7173C190.692 62.7403 188.937 62.1911 186.605 62.6579C186.248 62.7403 185.892 62.7678 185.535 62.7678C183.615 62.7678 181.667 61.7518 180.35 60.0769C179.143 58.5392 178.677 56.6996 179.089 55.0246C179.665 52.7456 179.089 51.0981 177.223 49.4781C176.812 49.1212 176.318 48.7917 175.742 48.3523L172.505 45.991L176.4 42.4489C177.498 41.4604 178.458 40.6092 179.39 39.7031C179.665 39.4285 179.692 39.2912 179.719 39.2638C179.719 39.2638 179.665 39.099 179.39 38.8244L176.153 35.5844C175.111 34.541 174.699 34.2939 174.562 34.239C174.699 34.2939 174.315 34.541 173.246 35.5844L89.6336 119.249C84.2844 124.576 76.2195 125.839 69.6633 122.351C66.3166 120.567 63.1071 118.562 60.0073 116.613C57.1269 114.801 53.8077 113.84 50.4062 113.84ZM50.6531 180.013C47.3887 180.013 44.3163 178.695 42.012 176.361C39.6529 173.945 38.3636 170.787 38.3911 167.41C38.4733 160.82 44.0969 155.219 50.6531 155.219H50.8451C57.5659 155.328 63.0248 160.93 62.9699 167.712C62.9425 174.357 57.2915 180.013 50.6531 180.013ZM50.6531 157.415V159.639C46.456 159.639 42.8624 163.209 42.8076 167.437C42.7801 169.607 43.6031 171.666 45.1393 173.231C46.6206 174.741 48.5682 175.565 50.6256 175.565C54.905 175.565 58.526 171.968 58.5534 167.684C58.5808 163.401 55.0147 159.722 50.7902 159.639L50.6531 157.415ZM82.4465 175.757C79.1821 175.73 76.192 174.467 73.97 172.215C71.6932 169.909 70.4862 166.806 70.5136 163.483C70.5959 157.031 75.9451 151.759 82.419 151.759H82.5013C85.6834 151.786 88.6735 153.049 90.8954 155.328C93.1723 157.662 94.4067 160.738 94.3518 164.005C94.2696 170.403 88.8106 175.757 82.4465 175.757ZM82.419 153.983V156.207C78.3591 156.207 75.0125 159.502 74.9576 163.538C74.9302 165.653 75.6983 167.63 77.1247 169.085C78.4963 170.513 80.3891 171.281 82.3916 171.309C86.4515 171.309 89.8805 167.932 89.9353 163.95C89.9628 161.863 89.1947 159.914 87.7408 158.431C86.3418 157.003 84.4764 156.207 82.4739 156.18L82.419 153.983ZM50.4336 143.604C43.8225 143.604 38.4459 138.277 38.4185 131.742C38.4185 128.557 39.6255 125.564 41.8749 123.312C44.1517 121.006 47.1966 119.77 50.461 119.77H50.4885C53.6431 119.77 56.6332 121.033 58.8826 123.312C61.132 125.591 62.3938 128.584 62.3664 131.742C62.3664 138.305 56.9898 143.604 50.4336 143.604ZM50.461 121.995V124.219C48.4036 124.219 46.4834 125.015 45.0295 126.47C43.6305 127.898 42.835 129.765 42.8624 131.742C42.8899 135.833 46.264 139.183 50.4062 139.183C54.5484 139.183 57.9225 135.833 57.9499 131.742C57.9499 129.765 57.1818 127.898 55.7554 126.443C54.3289 125.015 52.4635 124.219 50.4885 124.219L50.461 121.995Z" fill="#77227A"/>
</svg>
