<svg width="28" height="36" viewBox="0 0 28 36" fill="none" xmlns="http://www.w3.org/2000/svg">
<g clip-path="url(#clip0)">
<path fill-rule="evenodd" clip-rule="evenodd" d="M25.1416 19.669C24.5976 19.1852 24.0124 18.7504 23.4134 18.3367C22.8005 17.9231 22.1809 17.5234 21.5543 17.1378C20.9415 16.7591 20.3975 16.2893 19.8811 15.7915C17.5332 13.4917 17.9601 10.8062 18.0152 10.2803C18.0703 9.78252 18.208 9.30573 18.4765 8.87802C18.6899 8.53445 18.9654 8.25398 19.3234 8.05765C19.6333 7.88236 20.6661 7.65799 21.1756 8.69571C21.2926 8.9271 21.389 9.09538 21.6438 9.13745C21.9054 9.18653 22.1602 9.14446 22.3943 9.01825C22.8074 8.79388 23.0484 8.44329 23.0966 7.97351C23.1448 7.48971 23.0002 7.062 22.6973 6.69739C22.5664 6.53612 22.4907 6.45198 22.3186 6.33279C21.1136 5.51242 19.7159 5.96117 19.2959 6.11542C18.6486 6.34681 18.1047 6.78153 17.6571 7.27936C16.9273 8.09972 16.5073 9.09538 16.342 10.1752C16.225 10.9535 15.7843 13.7161 17.8086 16.5908C18.6142 17.7267 19.6057 18.6663 20.728 19.4726C21.1894 19.8022 21.6507 20.1317 22.0982 20.4823C22.7661 21.0082 24.6734 22.9083 24.3567 25.5517C24.3016 25.9935 24.2189 28.7561 20.611 30.1233C18.8759 30.7824 16.4246 31.112 13.9665 31.112C11.5084 31.112 9.05722 30.7824 7.32209 30.1233C3.71413 28.7561 3.70036 25.9935 3.64527 25.5517C3.32854 22.9154 5.23581 21.0152 5.90369 20.4823C6.34436 20.1317 6.81257 19.7952 7.2739 19.4726C8.39622 18.6663 9.39461 17.7267 10.1933 16.5908C12.2176 13.7161 11.777 10.9605 11.653 10.1752C11.4947 9.09538 11.0747 8.09972 10.3448 7.27936C9.89036 6.77452 9.3533 6.34681 8.70607 6.11542C8.28605 5.96818 6.8952 5.51242 5.69025 6.33279C5.51811 6.45198 5.44237 6.53612 5.31155 6.69739C5.00859 7.062 4.86399 7.48971 4.91219 7.97351C4.9535 8.44329 5.20138 8.79388 5.61451 9.01825C5.84861 9.14446 6.10337 9.18653 6.36502 9.13745C6.61978 9.09538 6.72306 8.9271 6.82634 8.69571C7.33586 7.65098 8.36868 7.88236 8.68541 8.05765C9.04345 8.25398 9.31887 8.54146 9.53232 8.87802C9.80085 9.30573 9.93856 9.78252 9.99364 10.2803C10.0487 10.8062 10.4687 13.4917 8.12769 15.7915C7.61817 16.2893 7.06733 16.7591 6.45453 17.1378C5.82795 17.5234 5.20827 17.9231 4.59546 18.3367C3.99643 18.7434 3.41117 19.1852 2.86722 19.669C1.43505 20.8119 -0.43779 23.5604 0.216326 26.933C0.836015 30.1304 2.99116 31.4485 3.28034 31.6379C6.34436 33.6432 8.91263 33.2576 10.9989 33.6432C11.7081 33.7764 12.9062 34.3373 13.6085 35.1437C13.7669 35.319 13.8839 35.4031 14.001 35.3961C14.118 35.3961 14.2351 35.312 14.3865 35.1437C15.0957 34.3303 16.2938 33.7694 17.003 33.6432C19.0962 33.2646 21.6576 33.6432 24.7216 31.6379C25.0108 31.4485 27.1659 30.1304 27.7856 26.933C28.4466 23.5604 26.5738 20.8119 25.1416 19.669Z" fill="#C69B51"/>
<path d="M6.42578 3.04424V5.01451C6.70808 4.95141 7.00416 4.91635 7.30712 4.91635C7.86484 4.91635 8.44321 5.02152 9.0147 5.23187C9.73767 5.49131 10.4193 5.9681 11.0321 6.64823C11.8584 7.57377 12.3748 8.70966 12.5745 10.0349C12.9738 12.6572 12.4299 15.0412 10.9495 17.1377C10.8256 17.32 10.681 17.5093 10.502 17.7337L11.6243 21.0502H16.389L17.5113 17.7337C17.3392 17.5233 17.1946 17.327 17.0638 17.1377C15.5903 15.0482 15.0463 12.6642 15.4319 10.0629C15.6385 8.70966 16.1549 7.56676 16.9812 6.64823C17.594 5.9681 18.2687 5.49131 18.9986 5.22486C19.577 5.01451 20.1484 4.90934 20.7062 4.90934C21.0091 4.90934 21.3052 4.9444 21.5875 5.0075V3.04424L13.9584 0.597168L6.42578 3.04424Z" fill="#C69B51"/>
</g>
<defs>
<clipPath id="clip0">
<rect width="27.8447" height="34.8059" fill="white" transform="translate(0.078125 0.597168)"/>
</clipPath>
</defs>
</svg>
