<svg width="48" height="32" viewBox="0 0 48 32" fill="none" xmlns="http://www.w3.org/2000/svg">
<path d="M19.8541 13.7119C15.9681 13.7119 12.8062 16.8739 12.8062 20.7598C12.8062 24.6458 15.9676 27.8072 19.8541 27.8072C23.7406 27.8072 26.902 24.6458 26.902 20.7598C26.902 16.8739 23.7401 13.7119 19.8541 13.7119ZM19.8541 26.292C16.8038 26.292 14.3219 23.8106 14.3219 20.7603C14.3219 17.7101 16.8038 15.2282 19.8541 15.2282C22.9049 15.2282 25.3862 17.7101 25.3862 20.7603C25.3862 23.8106 22.9043 26.292 19.8541 26.292Z" fill="#77227A"/>
<path d="M5.01913 13.7124C4.60026 13.7124 4.26123 14.0514 4.26123 14.4703V27.0493C4.26123 27.4677 4.60026 27.8072 5.01913 27.8072C5.43799 27.8072 5.77702 27.4677 5.77702 27.0493V14.4703C5.77702 14.0514 5.43799 13.7124 5.01913 13.7124Z" fill="#77227A"/>
<path d="M34.4503 13.7124C34.0319 13.7124 33.6924 14.0514 33.6924 14.4703V27.0493C33.6924 27.4677 34.0319 27.8072 34.4503 27.8072C34.8686 27.8072 35.2082 27.4677 35.2082 27.0493V14.4703C35.2082 14.0514 34.8691 13.7124 34.4503 13.7124Z" fill="#77227A"/>
<path d="M46.8995 0.453125H9.80411C9.38524 0.453125 9.04621 0.792157 9.04621 1.21102V4.95957H5.65084C5.23198 4.95957 4.89295 5.2986 4.89295 5.71746V9.88487H1.13631C0.71745 9.88487 0.378418 10.2239 0.378418 10.6428V30.8771C0.378418 31.2954 0.71745 31.6349 1.13631 31.6349H38.2323C38.6506 31.6349 38.9901 31.2954 38.9901 30.8771V26.7096H42.7473C43.1656 26.7096 43.5052 26.3701 43.5052 25.9517V22.2032H46.9C47.3184 22.2032 47.6579 21.8637 47.6579 21.4453V1.21102C47.6574 0.792157 47.3179 0.453125 46.8995 0.453125ZM1.89421 30.1192V11.4007H37.4744V25.9467C37.4744 25.9482 37.4739 25.9497 37.4739 25.9517C37.4739 25.9538 37.4744 25.9548 37.4744 25.9568V30.1192H1.89421ZM41.9889 25.1939H38.9896V10.6428C38.9896 10.2239 38.6501 9.88487 38.2317 9.88487H6.40874V6.47536H41.9889V25.1939ZM46.1416 20.6874H43.5047V5.71746C43.5047 5.2986 43.1651 4.95957 42.7468 4.95957H10.562V1.96891H46.1416V20.6874Z" fill="#77227A"/>
</svg>
