<svg width="53" height="53" viewBox="0 0 53 53" fill="none" xmlns="http://www.w3.org/2000/svg">
<path d="M33.6439 20.1873L17.5746 32.9576C17.2553 33.2236 17.1489 33.7557 17.4682 34.075C17.6278 34.2878 17.8406 34.3942 18.1067 34.3942C18.2663 34.3942 18.4791 34.341 18.5856 34.2346L34.6548 21.4643C34.9741 21.1983 35.0805 20.6662 34.7613 20.3469C34.4952 19.9744 34.0163 19.9212 33.6439 20.1873Z" fill="#77227A"/>
<path d="M21.8846 25.8807C22.0974 25.8807 22.3103 25.8807 22.5231 25.8275C24.7047 25.5082 26.2478 23.433 25.8753 21.1982C25.7157 20.134 25.1304 19.1763 24.279 18.5377C23.4277 17.8992 22.3635 17.6332 21.2993 17.7928C20.2351 17.9524 19.2773 18.5377 18.6388 19.3891C18.0003 20.2405 17.7343 21.3046 17.8939 22.3688C18.2131 24.444 19.9691 25.8807 21.8846 25.8807ZM21.5121 19.4423C21.6186 19.4423 21.7782 19.3891 21.8846 19.3891C23.0552 19.3891 24.1194 20.2405 24.279 21.4643C24.4919 22.7945 23.5873 24.0183 22.2571 24.2312C20.9268 24.444 19.703 23.5394 19.4902 22.2092C19.2773 20.879 20.2351 19.6551 21.5121 19.4423Z" fill="#77227A"/>
<path d="M30.3979 28.5405C28.1631 28.5405 26.354 30.3497 26.354 32.5845C26.354 34.8193 28.1631 36.6284 30.3979 36.6284C32.6327 36.6284 34.4419 34.8193 34.4419 32.5845C34.3886 30.3497 32.5795 28.5405 30.3979 28.5405ZM30.3979 34.9789C29.0677 34.9789 27.9503 33.8615 27.9503 32.5312C27.9503 31.201 29.0677 30.0836 30.3979 30.0836C31.7282 30.0836 32.8456 31.201 32.8456 32.5312C32.7924 33.9147 31.7282 34.9789 30.3979 34.9789Z" fill="#77227A"/>
<path d="M50.2986 26.6786C50.2986 26.6253 50.3518 26.5189 50.3518 26.4657C50.3518 24.1777 47.9574 23.0071 45.8822 21.9961C44.3924 21.2512 42.7961 20.453 42.3704 19.4953C41.9447 18.4843 42.53 16.8348 43.1153 15.2917C43.9135 13.1101 44.7116 10.8753 43.2218 9.38545C41.7319 7.89558 39.6035 8.42768 37.4751 8.90657C35.9853 9.22582 34.4422 9.59829 33.4312 9.17261C32.4202 8.74694 31.5689 7.4167 30.7707 6.13967C29.6001 4.33054 28.3231 2.25537 26.0883 2.25537C23.8535 2.25537 22.5764 4.33054 21.459 6.19288C20.6609 7.52312 19.8628 8.85336 18.8518 9.27903C17.8408 9.70471 16.2445 9.33224 14.7546 8.95978C12.6263 8.42768 10.4447 7.89559 9.00801 9.33224C7.51814 10.8221 8.26308 13.0569 8.9548 15.2385C9.4869 16.8348 9.96578 18.4311 9.54011 19.4953C9.11443 20.5062 7.62456 21.2512 6.1879 21.9961C4.16594 23.0603 1.87793 24.2309 1.87793 26.4657C1.87793 26.5189 1.87793 26.6253 1.93114 26.6786C1.93114 26.7318 1.87793 26.8382 1.87793 26.8914C1.87793 29.1262 4.16594 30.35 6.1879 31.361C7.62456 32.1059 9.11443 32.8509 9.54011 33.8618C9.96578 34.8728 9.43369 36.5223 8.9548 38.1186C8.26308 40.3002 7.51814 42.535 9.00801 44.0249C10.4979 45.5147 12.6795 44.9294 14.7546 44.3973C16.2445 44.0249 17.8408 43.6524 18.8518 44.0781C19.8628 44.5038 20.6609 45.834 21.459 47.1642C22.5764 49.0266 23.8535 51.1017 26.0883 51.1017C28.3231 51.1017 29.6533 49.0266 30.7707 47.2174C31.5689 45.9404 32.4202 44.6102 33.4312 44.1845C34.4954 43.7588 35.9853 44.0781 37.4751 44.4506C39.5503 44.9294 41.7319 45.4615 43.2218 43.9717C44.7116 42.4818 43.9135 40.247 43.1153 38.0654C42.53 36.4691 41.9447 34.8728 42.3704 33.8618C42.7961 32.8509 44.3392 32.1059 45.8822 31.361C47.9574 30.2968 50.3518 29.1262 50.3518 26.8914C50.3518 26.785 50.2986 26.7318 50.2986 26.6786ZM45.1373 29.9243C43.3814 30.8289 41.519 31.7335 40.8805 33.2765C40.1888 34.8728 40.9337 36.7884 41.5723 38.6507C42.2108 40.4066 42.8493 42.1093 42.0511 42.8543C41.1998 43.7056 39.5503 43.3332 37.7944 42.9075C36.0385 42.4818 34.2825 42.1093 32.7395 42.7478C31.2496 43.3864 30.2918 44.8762 29.3873 46.3661C28.3763 47.9624 27.4185 49.5055 26.0351 49.5055C24.7048 49.5055 23.7471 47.9624 22.7361 46.3129C21.8315 44.7698 20.8737 43.2267 19.3839 42.5882C17.8408 41.9497 16.0317 42.3754 14.2758 42.8543C12.5198 43.2799 10.8703 43.7056 10.019 42.9075C9.22085 42.1093 9.75294 40.4066 10.3382 38.6507C10.9236 36.7884 11.5621 34.8728 10.8703 33.3298C10.2318 31.7867 8.47591 30.8821 6.77321 30.0308C5.01729 29.1262 3.3678 28.2748 3.3678 26.9446C3.3678 26.8914 3.3678 26.785 3.31459 26.7318C3.31459 26.6786 3.3678 26.5721 3.3678 26.5189C3.3678 25.2419 5.01729 24.3905 6.77321 23.4328C8.47591 22.5814 10.2318 21.6769 10.8703 20.1338C11.5089 18.5375 10.9236 16.622 10.3382 14.8128C9.75294 13.0037 9.22085 11.301 10.019 10.5561C10.8703 9.70471 12.5198 10.1304 14.2758 10.6093C16.0317 11.0349 17.8408 11.5138 19.3839 10.8753C20.8737 10.2368 21.8315 8.69373 22.7361 7.15065C23.7471 5.50115 24.6516 3.95808 26.0351 3.95808C27.4185 3.95808 28.3763 5.50115 29.3873 7.09744C30.345 8.58731 31.3028 10.0772 32.7395 10.7157C34.2825 11.3542 36.0385 10.9285 37.7944 10.5561C39.5503 10.1304 41.1998 9.75792 42.0511 10.6093C42.8493 11.3542 42.2108 13.0569 41.5723 14.8128C40.8805 16.6752 40.1888 18.5907 40.8805 20.187C41.519 21.7301 43.3814 22.6346 45.1373 23.5392C46.9996 24.4438 48.7023 25.3483 48.7023 26.6253C48.7023 26.6786 48.7023 26.785 48.7555 26.8382C48.7555 26.8914 48.7023 26.9978 48.7023 27.051C48.7555 28.1152 46.9996 29.0198 45.1373 29.9243Z" fill="#77227A"/>
</svg>
