<svg width="40" height="41" viewBox="0 0 40 41" fill="none" xmlns="http://www.w3.org/2000/svg">
<path fill-rule="evenodd" clip-rule="evenodd" d="M20 0.631836C8.9543 0.631836 0 9.55663 0 20.5659C0 31.5752 8.9543 40.5 20 40.5C31.0457 40.5 40 31.5752 40 20.5659C40 9.55663 31.0457 0.631836 20 0.631836ZM21.6285 26.8587C21.4312 27.0659 21.0462 27.1078 21.0462 27.1078H19.7712C19.7712 27.1078 16.9581 27.2731 14.48 24.7496C11.7776 21.9964 9.39129 16.5339 9.39129 16.5339C9.39129 16.5339 9.25356 16.1756 9.40277 16.0031C9.57076 15.8081 10.0288 15.7959 10.0288 15.7959L13.0766 15.7765C13.0766 15.7765 13.3636 15.8224 13.5691 15.9704C13.7392 16.0929 13.8342 16.3206 13.8342 16.3206C13.8342 16.3206 14.3266 17.5395 14.9788 18.642C16.2528 20.7949 16.8454 21.2655 17.2774 21.0348C17.9076 20.699 17.7188 17.9917 17.7188 17.9917C17.7188 17.9917 17.7303 17.0097 17.4016 16.5717C17.147 16.2328 16.667 16.1338 16.4552 16.1062C16.283 16.0838 16.5648 15.6938 16.93 15.5192C17.4788 15.2569 18.4471 15.2416 19.5917 15.2528C20.4838 15.262 20.7405 15.3161 21.089 15.3988C21.8978 15.5897 21.8726 16.2017 21.8181 17.5225C21.8018 17.9175 21.7829 18.3759 21.7829 18.9053C21.7829 19.0243 21.7793 19.1512 21.7757 19.2816C21.7568 19.9583 21.7351 20.7331 22.1909 21.0215C22.4246 21.1685 22.9953 21.043 24.4238 18.6706C25.1009 17.5456 25.608 16.2236 25.608 16.2236C25.608 16.2236 25.7197 15.9878 25.8918 15.8867C26.0682 15.7836 26.3061 15.8153 26.3061 15.8153L29.5135 15.7959C29.5135 15.7959 30.4777 15.6826 30.6331 16.1093C30.7969 16.5554 30.2731 17.5987 28.9626 19.3076C27.7197 20.9287 27.1147 21.5258 27.17 22.0537C27.2104 22.4396 27.6037 22.7886 28.3585 23.4736C29.9338 24.9045 30.3561 25.6574 30.4575 25.8383C30.4659 25.8533 30.4721 25.8643 30.4766 25.8715C31.183 27.0179 29.693 27.1078 29.693 27.1078L26.8434 27.1466C26.8434 27.1466 26.232 27.265 25.4265 26.7239C25.0045 26.4408 24.5922 25.9783 24.1995 25.5377C23.5997 24.865 23.0456 24.2435 22.5727 24.3903C21.7787 24.6373 21.8027 26.3105 21.8027 26.3105C21.8027 26.3105 21.809 26.6688 21.6285 26.8587Z" fill="#C69B51"/>
</svg>
