<svg width="41" height="40" viewBox="0 0 41 40" fill="none" xmlns="http://www.w3.org/2000/svg">
<path fill-rule="evenodd" clip-rule="evenodd" d="M20.7398 0C9.69411 0 0.739807 8.92479 0.739807 19.9341C0.739807 30.9434 9.69411 39.8682 20.7398 39.8682C31.7855 39.8682 40.7398 30.9434 40.7398 19.9341C40.7398 8.92479 31.7855 0 20.7398 0ZM22.3683 26.2268C22.1711 26.4341 21.786 26.4759 21.786 26.4759H20.511C20.511 26.4759 17.6979 26.6413 15.2198 24.1178C12.5174 21.3646 10.1311 15.9021 10.1311 15.9021C10.1311 15.9021 9.99337 15.5438 10.1426 15.3713C10.3106 15.1763 10.7686 15.164 10.7686 15.164L13.8164 15.1446C13.8164 15.1446 14.1034 15.1906 14.3089 15.3386C14.479 15.4611 14.574 15.6888 14.574 15.6888C14.574 15.6888 15.0664 16.9076 15.7186 18.0101C16.9926 20.1631 17.5853 20.6337 18.0172 20.403C18.6474 20.0671 18.4586 17.3599 18.4586 17.3599C18.4586 17.3599 18.4701 16.3778 18.1414 15.9399C17.8868 15.601 17.4068 15.5019 17.195 15.4744C17.0229 15.4519 17.3046 15.062 17.6698 14.8874C18.2186 14.625 19.1869 14.6097 20.3315 14.621C21.2236 14.6301 21.4803 14.6842 21.8288 14.7669C22.6376 14.9579 22.6124 15.5699 22.5579 16.8906C22.5416 17.2856 22.5227 17.744 22.5227 18.2735C22.5227 18.3925 22.5191 18.5193 22.5155 18.6498C22.4966 19.3264 22.4749 20.1013 22.9307 20.3897C23.1644 20.5367 23.7351 20.4111 25.1636 18.0387C25.8407 16.9138 26.3478 15.5918 26.3478 15.5918C26.3478 15.5918 26.4595 15.356 26.6317 15.2549C26.808 15.1518 27.0459 15.1834 27.0459 15.1834L30.2533 15.164C30.2533 15.164 31.2175 15.0507 31.3729 15.4774C31.5367 15.9235 31.013 16.9668 29.7024 18.6757C28.4595 20.2969 27.8545 20.894 27.9098 21.4219C27.9502 21.8078 28.3435 22.1567 29.0983 22.8417C30.6736 24.2727 31.0959 25.0256 31.1973 25.2064C31.2057 25.2214 31.2119 25.2325 31.2164 25.2397C31.9228 26.3861 30.4328 26.4759 30.4328 26.4759L27.5832 26.5147C27.5832 26.5147 26.9718 26.6331 26.1663 26.0921C25.7443 25.8089 25.332 25.3464 24.9393 24.9059C24.3395 24.2331 23.7855 23.6116 23.3126 23.7585C22.5185 24.0055 22.5425 25.6786 22.5425 25.6786C22.5425 25.6786 22.5488 26.037 22.3683 26.2268Z" fill="#77227A"/>
</svg>
