<svg width="41" height="51" viewBox="0 0 41 51" fill="none" xmlns="http://www.w3.org/2000/svg">
<g clip-path="url(#clip0)">
<path fill-rule="evenodd" clip-rule="evenodd" d="M36.6792 27.4691C35.8978 26.7741 35.0571 26.1496 34.1965 25.5553C33.3162 24.9611 32.426 24.3869 31.5259 23.8329C30.6456 23.289 29.8642 22.6142 29.1224 21.899C25.7495 18.5952 26.3627 14.7375 26.4418 13.982C26.521 13.2669 26.7188 12.5819 27.1046 11.9675C27.4112 11.474 27.8068 11.0711 28.3212 10.789C28.7663 10.5372 30.25 10.2149 30.9819 11.7056C31.15 12.038 31.2885 12.2798 31.6545 12.3402C32.0304 12.4107 32.3963 12.3503 32.7326 12.169C33.3261 11.8466 33.6723 11.343 33.7415 10.6682C33.8108 9.97315 33.6031 9.35873 33.1679 8.83496C32.9799 8.60329 32.8711 8.48242 32.6238 8.31119C30.8929 7.1327 28.885 7.77734 28.2816 7.99894C27.3518 8.33133 26.5704 8.95583 25.9275 9.67098C24.879 10.8495 24.2757 12.2798 24.0383 13.8309C23.8701 14.949 23.2371 18.9176 26.1451 23.0473C27.3024 24.679 28.7267 26.0288 30.339 27.1871C31.0017 27.6605 31.6644 28.1339 32.3073 28.6375C33.2668 29.393 36.0066 32.1226 35.5516 35.92C35.4725 36.5545 35.3538 40.5231 30.1708 42.4873C27.6782 43.4341 24.157 43.9075 20.6258 43.9075C17.0947 43.9075 13.5734 43.4341 11.0808 42.4873C5.89782 40.5231 5.87804 36.5545 5.79891 35.92C5.34392 32.1327 8.08378 29.403 9.04322 28.6375C9.67626 28.1339 10.3489 27.6504 11.0116 27.1871C12.6238 26.0288 14.0581 24.679 15.2054 23.0473C18.1135 18.9176 17.4804 14.9591 17.3024 13.8309C17.0749 12.2798 16.4715 10.8495 15.423 9.67098C14.7702 8.94575 13.9987 8.33133 13.0689 7.99894C12.4656 7.78741 10.4676 7.1327 8.7366 8.31119C8.48932 8.48242 8.38051 8.60329 8.19258 8.83496C7.75737 9.35873 7.54965 9.97315 7.61889 10.6682C7.67824 11.343 8.03432 11.8466 8.62779 12.169C8.9641 12.3503 9.33007 12.4107 9.70593 12.3402C10.0719 12.2798 10.2203 12.038 10.3686 11.7056C11.1006 10.2048 12.5843 10.5372 13.0393 10.789C13.5536 11.0711 13.9493 11.484 14.2559 11.9675C14.6416 12.5819 14.8395 13.2669 14.9186 13.982C14.9977 14.7375 15.6011 18.5952 12.2381 21.899C11.5061 22.6142 10.7148 23.289 9.83452 23.8329C8.93442 24.3869 8.04421 24.9611 7.1639 25.5553C6.30336 26.1395 5.46261 26.7741 4.68121 27.4691C2.62384 29.1109 -0.0665678 33.0594 0.873096 37.9043C1.7633 42.4973 4.85925 44.391 5.27468 44.6629C9.67626 47.5437 13.3657 46.9897 16.3627 47.5437C17.3815 47.735 19.1026 48.5408 20.1115 49.6992C20.339 49.951 20.5071 50.0719 20.6753 50.0618C20.8434 50.0618 21.0116 49.9409 21.2292 49.6992C22.248 48.5308 23.969 47.725 24.9878 47.5437C27.9948 46.9997 31.6743 47.5437 36.0759 44.6629C36.4913 44.391 39.5872 42.4973 40.4774 37.9043C41.427 33.0594 38.7366 29.1109 36.6792 27.4691Z" fill="#C69B51"/>
<path d="M9.79498 3.58709V6.41747C10.2005 6.32681 10.6258 6.27645 11.0611 6.27645C11.8622 6.27645 12.6931 6.42754 13.5141 6.72971C14.5526 7.1024 15.5319 7.78733 16.4122 8.76436C17.5991 10.0939 18.341 11.7257 18.6278 13.6294C19.2015 17.3965 18.4201 20.8212 16.2935 23.8329C16.1155 24.0947 15.9077 24.3667 15.6506 24.689L17.2628 29.4533H24.1075L25.7198 24.689C25.4725 24.3868 25.2648 24.1048 25.0769 23.8329C22.9602 20.8312 22.1788 17.4066 22.7327 13.6697C23.0294 11.7257 23.7712 10.0839 24.9582 8.76436C25.8385 7.78733 26.8078 7.1024 27.8563 6.71964C28.6872 6.41747 29.5081 6.26638 30.3093 6.26638C30.7445 6.26638 31.1699 6.31674 31.5754 6.40739V3.58709L20.616 0.0717773L9.79498 3.58709Z" fill="#C69B51"/>
</g>
<defs>
<clipPath id="clip0">
<rect width="40" height="50" fill="white" transform="translate(0.675293 0.0717773)"/>
</clipPath>
</defs>
</svg>
