<svg width="40" height="41" viewBox="0 0 40 41" fill="none" xmlns="http://www.w3.org/2000/svg">
<path fill-rule="evenodd" clip-rule="evenodd" d="M20 0.631836C8.9543 0.631836 0 9.55663 0 20.5659C0 31.5752 8.9543 40.5 20 40.5C31.0457 40.5 40 31.5752 40 20.5659C40 9.55663 31.0457 0.631836 20 0.631836ZM28.3347 13.713C29.2526 13.9641 29.9755 14.7038 30.2209 15.6432C30.6667 17.3458 30.6667 20.8982 30.6667 20.8982C30.6667 20.8982 30.6667 24.4504 30.2209 26.1531C29.9755 27.0925 29.2526 27.8323 28.3347 28.0834C26.6712 28.5396 20 28.5396 20 28.5396C20 28.5396 13.3289 28.5396 11.6652 28.0834C10.7473 27.8323 10.0244 27.0925 9.77904 26.1531C9.33334 24.4504 9.33334 20.8982 9.33334 20.8982C9.33334 20.8982 9.33334 17.3458 9.77904 15.6432C10.0244 14.7038 10.7473 13.9641 11.6652 13.713C13.3289 13.2568 20 13.2568 20 13.2568C20 13.2568 26.6712 13.2568 28.3347 13.713Z" fill="#C69B51"/>
<path d="M18 24.5529V17.9082L23.3333 21.2307L18 24.5529Z" fill="#C69B51"/>
</svg>
