<svg width="41" height="40" viewBox="0 0 41 40" fill="none" xmlns="http://www.w3.org/2000/svg">
<path fill-rule="evenodd" clip-rule="evenodd" d="M20.7398 0C9.69411 0 0.739807 8.92479 0.739807 19.9341C0.739807 30.9434 9.69411 39.8682 20.7398 39.8682C31.7855 39.8682 40.7398 30.9434 40.7398 19.9341C40.7398 8.92479 31.7855 0 20.7398 0ZM29.0745 13.0812C29.9924 13.3323 30.7153 14.072 30.9607 15.0114C31.4065 16.714 31.4065 20.2663 31.4065 20.2663C31.4065 20.2663 31.4065 23.8186 30.9607 25.5213C30.7153 26.4607 29.9924 27.2004 29.0745 27.4516C27.411 27.9077 20.7398 27.9077 20.7398 27.9077C20.7398 27.9077 14.0687 27.9077 12.405 27.4516C11.4871 27.2004 10.7642 26.4607 10.5188 25.5213C10.0732 23.8186 10.0732 20.2663 10.0732 20.2663C10.0732 20.2663 10.0732 16.714 10.5188 15.0114C10.7642 14.072 11.4871 13.3323 12.405 13.0812C14.0687 12.6249 20.7398 12.6249 20.7398 12.6249C20.7398 12.6249 27.411 12.6249 29.0745 13.0812Z" fill="#77227A"/>
<path d="M18.7398 23.9211V17.2764L24.0731 20.5988L18.7398 23.9211Z" fill="#77227A"/>
</svg>
