<svg width="210" height="40" viewBox="0 0 210 40" fill="none" xmlns="http://www.w3.org/2000/svg">
<path fill-rule="evenodd" clip-rule="evenodd" d="M27.2742 21.8004C26.6749 21.2641 26.0756 20.8044 25.4014 20.3448C24.7272 19.8851 24.053 19.4254 23.3788 19.0424C22.7046 18.6593 22.1053 18.123 21.581 17.5867C19.034 15.0585 19.4835 12.1472 19.5584 11.5343C19.6333 10.998 19.7831 10.4617 20.0828 10.002C20.3075 9.61897 20.6071 9.31251 20.9817 9.08268C21.3562 8.92945 22.405 8.623 23.0043 9.77219C23.1541 10.002 23.229 10.2319 23.5286 10.2319C23.8283 10.3085 24.1279 10.2319 24.3527 10.0786C24.8021 9.8488 25.1018 9.46574 25.1018 8.92945C25.1767 8.39316 25.0269 7.93348 24.6523 7.55042C24.5025 7.39719 24.4276 7.24397 24.2028 7.16735C22.8544 6.248 21.3562 6.78429 20.9068 6.93751C20.2326 7.16735 19.6333 7.62703 19.1089 8.23993C18.2849 9.15929 17.8355 10.2319 17.6856 11.3811C17.5358 12.2238 17.0863 15.2117 19.2587 18.3528C20.1577 19.5786 21.2064 20.6512 22.405 21.494C22.9294 21.877 23.3788 22.1835 23.9032 22.5665C24.6523 23.1794 26.6749 25.248 26.3752 28.0827C26.3003 28.5424 26.2254 31.6069 22.3301 33.0625C20.4573 33.752 17.7605 34.1351 15.1387 34.1351C12.4419 34.1351 9.82004 33.752 7.94728 33.0625C4.05194 31.6069 3.97703 28.5424 3.97703 28.0827C3.60248 25.1714 5.69997 23.1028 6.44907 22.5665C6.89853 22.1835 7.42291 21.8004 7.94728 21.494C9.14585 20.5746 10.2695 19.5786 11.0935 18.3528C13.2659 15.2117 12.8165 12.2238 12.6666 11.3811C12.5168 10.2319 12.0674 9.08268 11.2433 8.23993C10.719 7.70364 10.1946 7.24397 9.44549 6.93751C8.92111 6.8609 7.42291 6.32461 6.14943 7.24397C5.9247 7.32058 5.84979 7.4738 5.69997 7.62703C5.40033 8.01009 5.17559 8.46977 5.2505 9.00606C5.32542 9.54235 5.55015 9.92542 5.99961 10.1553C6.22434 10.3085 6.52398 10.3085 6.82362 10.3085C7.12326 10.2319 7.19817 10.0786 7.348 9.8488C7.87237 8.69961 8.99602 8.92945 9.37058 9.15929C9.74513 9.38913 10.0448 9.69558 10.2695 10.0786C10.5691 10.5383 10.719 11.0746 10.7939 11.6109C10.8688 12.1472 11.3182 15.1351 8.77129 17.6633C8.24692 18.1996 7.64764 18.7359 6.97344 19.119C6.29925 19.5786 5.62506 19.9617 4.95086 20.4214C4.27667 20.8811 3.67739 21.3407 3.0781 21.877C1.50499 23.0262 -0.592506 26.0907 0.156598 29.7682C0.830791 33.2923 3.15301 34.6714 3.45266 34.9012C6.82362 37.123 9.59531 36.6633 11.8426 37.123C12.5917 37.2762 13.9401 37.8891 14.6892 38.7319C14.839 38.8851 14.9889 39.0383 15.1387 39.0383C15.2885 39.0383 15.3634 38.9617 15.5881 38.7319C16.3372 37.8125 17.6856 37.1996 18.4347 37.123C20.682 36.7399 23.5286 37.123 26.8247 34.9012C27.1243 34.6714 29.4466 33.2923 30.1208 29.7682C30.8699 26.0907 28.8473 23.0262 27.2742 21.8004Z" fill="white"/>
<path d="M6.89893 3.64312V5.78828C7.19857 5.71167 7.49821 5.71167 7.87276 5.71167C8.47204 5.71167 9.07133 5.78828 9.74552 6.01812C10.5695 6.32457 11.2437 6.86086 11.9179 7.55038C12.8168 8.54635 13.4161 9.77215 13.566 11.2278C14.0154 14.0625 13.4161 16.6673 11.7681 18.9657C11.6183 19.1955 11.4685 19.3488 11.2437 19.5786L12.4423 23.1794H17.6111L18.8097 19.5786C18.6599 19.3488 18.4351 19.1189 18.2853 18.9657C16.7122 16.6673 16.1129 14.0625 16.4875 11.2278C16.7122 9.77215 17.3115 8.46973 18.1355 7.47377C18.8097 6.70764 19.5588 6.17135 20.3079 5.94151C20.9072 5.71167 21.5814 5.63506 22.1806 5.63506C22.4803 5.63506 22.8548 5.63506 23.1545 5.71167V3.64312L15.1391 0.96167L6.89893 3.64312Z" fill="white"/>
<path d="M56.7888 11.3811V14.1392H49.2228V18.5827H51.4701C52.9683 18.5827 54.5415 18.5827 55.8898 19.6553C56.8637 20.4214 57.9124 21.7238 57.9124 24.1755C57.9124 25.5545 57.6128 27.4698 55.8898 28.6956C54.3916 29.8448 52.8934 29.7682 51.545 29.7682H45.9268V11.3811H56.7888ZM49.2228 26.9335H51.4701C52.0694 26.9335 52.9683 26.9335 53.5676 26.4738C54.092 26.0908 54.5415 25.4013 54.5415 24.0988C54.5415 22.7964 54.092 22.1069 53.5676 21.7238C52.8934 21.2642 51.9945 21.2642 51.4701 21.2642H49.2228V26.9335Z" fill="white"/>
<path d="M69.6734 11.3811L74.6924 29.7682H71.3214L70.1229 24.865H64.5046L63.306 29.7682H59.9351L64.9541 11.3811H69.6734ZM65.1788 22.1835H69.5236L67.5759 13.7561H67.2014L65.1788 22.1835Z" fill="white"/>
<path d="M86.2285 11.3811L90.5733 26.9335H91.3224V29.7682H76.3403V26.9335H77.0894L81.4342 11.3811H86.2285ZM80.4604 26.9335H87.2773L84.0561 13.9093H83.6816L80.4604 26.9335Z" fill="white"/>
<path d="M104.806 11.3811V14.1392H97.3901V18.9658H104.581V21.6472H97.3901V26.9335H104.956V29.7682H94.1689V11.3811H104.806Z" fill="white"/>
<path d="M111.548 11.3811V18.7359H117.541V11.3811H120.762V29.7682H117.541V21.5706H111.548V29.7682H108.327V11.3811H111.548Z" fill="white"/>
<path d="M144.959 11.3811V14.1392H137.393V18.5827H139.64C141.138 18.5827 142.711 18.5827 144.06 19.6553C145.034 20.4214 146.082 21.7238 146.082 24.1755C146.082 25.5545 145.783 27.4698 144.06 28.6956C142.562 29.8448 141.063 29.7682 139.715 29.7682H134.097V11.3811H144.959ZM137.468 26.9335H139.715C140.314 26.9335 141.213 26.9335 141.812 26.4738C142.337 26.0908 142.786 25.4013 142.786 24.0988C142.786 22.7964 142.337 22.1069 141.812 21.7238C141.138 21.2642 140.239 21.2642 139.715 21.2642H137.468V26.9335Z" fill="white"/>
<path d="M157.918 11.3811L162.937 29.7682H159.566L158.367 24.865H152.749L151.551 29.7682H148.18L153.199 11.3811H157.918ZM153.423 22.1835H157.768L155.821 13.7561H155.446L153.423 22.1835Z" fill="white"/>
<path d="M174.473 11.3811L178.818 26.9335H179.567V29.7682H164.585V26.9335H165.334L169.679 11.3811H174.473ZM168.63 26.9335H175.447L172.226 13.9093H171.851L168.63 26.9335Z" fill="white"/>
<path d="M193.051 11.3811V14.1392H185.71V18.9658H192.901V21.6472H185.71V26.9335H193.276V29.7682H182.489V11.3811H193.051Z" fill="white"/>
<path d="M199.793 11.3811V18.7359H205.786V11.3811H209.007V29.7682H205.786V21.5706H199.793V29.7682H196.572V11.3811H199.793Z" fill="white"/>
<path d="M130.501 18.7358H124.508V21.5705H130.501V18.7358Z" fill="white"/>
</svg>
